<?xml version="1.0" encoding="UTF-8" standalone="no"?>
<!DOCTYPE svg PUBLIC "-//W3C//DTD SVG 20010904//EN"
              "http://www.w3.org/TR/2001/REC-SVG-20010904/DTD/svg10.dtd">

<svg xmlns="http://www.w3.org/2000/svg"
     width="0.28in" height="0.0833333in"
     viewBox="0 0 84 25">
  <path id="Seleção"
        fill="none" stroke="black" stroke-width="1"
        d="M 2.00,5.00
           C 8.11,5.51 7.59,7.15 11.00,12.00
             12.92,6.72 13.19,5.48 19.00,5.00
             19.00,5.00 19.00,20.00 19.00,20.00
             19.00,20.00 15.00,20.00 15.00,20.00
             15.00,20.00 14.00,11.00 14.00,11.00
             14.00,11.00 12.00,17.00 12.00,17.00
             12.00,17.00 9.00,17.00 9.00,17.00
             9.00,17.00 6.00,11.00 6.00,11.00
             6.00,11.00 6.00,20.00 6.00,20.00
             6.00,20.00 2.00,20.00 2.00,20.00
             2.00,20.00 2.00,5.00 2.00,5.00 Z
           M 31.00,15.00
           C 29.38,14.65 27.61,14.40 26.15,13.58
             18.30,9.18 28.84,0.29 34.00,8.00
             34.00,8.00 26.00,8.00 26.00,8.00
             26.00,8.00 26.00,10.00 26.00,10.00
             27.60,10.48 30.44,11.22 31.76,12.14
             38.41,16.76 27.79,24.16 23.00,17.00
             23.00,17.00 31.00,17.00 31.00,17.00
             31.00,17.00 31.00,15.00 31.00,15.00 Z
           M 49.00,17.00
           C 44.83,22.98 35.87,18.79 37.66,13.06
             38.98,8.80 47.38,6.09 49.00,16.00
             49.00,16.00 41.00,17.00 41.00,17.00
             41.00,17.00 49.00,17.00 49.00,17.00 Z
           M 52.00,9.00
           C 52.00,9.00 60.00,9.00 60.00,9.00
             56.64,14.18 55.42,12.92 55.00,20.00
             55.00,20.00 52.00,20.00 52.00,20.00
             52.00,20.00 52.00,9.00 52.00,9.00 Z
           M 62.00,9.00
           C 62.00,9.00 70.00,9.00 70.00,9.00
             66.64,14.18 65.42,12.92 65.00,20.00
             65.00,20.00 62.00,20.00 62.00,20.00
             62.00,20.00 62.00,9.00 62.00,9.00 Z
           M 72.00,12.00
           C 75.15,7.48 82.70,6.78 83.00,20.00
             81.16,19.94 75.54,19.92 74.15,19.35
             70.80,17.97 71.07,14.75 75.06,13.20
             75.06,13.20 79.00,12.00 79.00,12.00
             79.00,12.00 72.00,12.00 72.00,12.00 Z
           M 45.00,14.00
           C 45.00,14.00 42.00,11.00 42.00,11.00
             42.00,11.00 41.00,14.00 41.00,14.00
             41.00,14.00 45.00,14.00 45.00,14.00 Z
           M 79.00,15.00
           C 76.13,15.55 76.13,15.29 75.00,18.00
             75.00,18.00 79.00,15.00 79.00,15.00 Z" />
</svg>
